<mxfile host="app.diagrams.net" modified="2020-12-16T23:25:35.963Z" agent="5.0 (Windows NT 10.0; Win64; x64) AppleWebKit/537.36 (KHTML, like Gecko) Chrome/87.0.4280.88 Safari/537.36" etag="6yzkjcU4z10tndx7Ct5W" version="14.0.4" type="github">
  <diagram id="U6KRRqosZXHMHbHaa9wS" name="Page-1">
    <mxGraphModel dx="1422" dy="762" grid="1" gridSize="10" guides="1" tooltips="1" connect="1" arrows="1" fold="1" page="1" pageScale="1" pageWidth="850" pageHeight="1100" math="0" shadow="0">
      <root>
        <mxCell id="0" />
        <mxCell id="1" parent="0" />
        <mxCell id="_fCZWCZqBKab2BdOpWAs-1" value="Customer" style="rounded=0;whiteSpace=wrap;html=1;" vertex="1" parent="1">
          <mxGeometry x="610" y="200" width="80" height="40" as="geometry" />
        </mxCell>
        <mxCell id="_fCZWCZqBKab2BdOpWAs-40" style="edgeStyle=none;rounded=0;orthogonalLoop=1;jettySize=auto;html=1;exitX=1;exitY=0;exitDx=0;exitDy=0;entryX=0;entryY=0.5;entryDx=0;entryDy=0;endArrow=none;endFill=0;" edge="1" parent="1" source="_fCZWCZqBKab2BdOpWAs-2" target="_fCZWCZqBKab2BdOpWAs-36">
          <mxGeometry relative="1" as="geometry" />
        </mxCell>
        <mxCell id="_fCZWCZqBKab2BdOpWAs-41" style="edgeStyle=none;rounded=0;orthogonalLoop=1;jettySize=auto;html=1;exitX=1;exitY=0.5;exitDx=0;exitDy=0;entryX=0;entryY=0.5;entryDx=0;entryDy=0;endArrow=none;endFill=0;" edge="1" parent="1" source="_fCZWCZqBKab2BdOpWAs-2" target="_fCZWCZqBKab2BdOpWAs-38">
          <mxGeometry relative="1" as="geometry" />
        </mxCell>
        <mxCell id="_fCZWCZqBKab2BdOpWAs-42" style="edgeStyle=none;rounded=0;orthogonalLoop=1;jettySize=auto;html=1;exitX=1;exitY=1;exitDx=0;exitDy=0;entryX=0;entryY=0.5;entryDx=0;entryDy=0;endArrow=none;endFill=0;" edge="1" parent="1" source="_fCZWCZqBKab2BdOpWAs-2" target="_fCZWCZqBKab2BdOpWAs-39">
          <mxGeometry relative="1" as="geometry" />
        </mxCell>
        <mxCell id="_fCZWCZqBKab2BdOpWAs-43" style="edgeStyle=none;rounded=0;orthogonalLoop=1;jettySize=auto;html=1;exitX=0;exitY=0;exitDx=0;exitDy=0;entryX=0.5;entryY=1;entryDx=0;entryDy=0;endArrow=none;endFill=0;" edge="1" parent="1" source="_fCZWCZqBKab2BdOpWAs-2" target="_fCZWCZqBKab2BdOpWAs-37">
          <mxGeometry relative="1" as="geometry" />
        </mxCell>
        <mxCell id="_fCZWCZqBKab2BdOpWAs-44" value="" style="edgeStyle=none;rounded=0;orthogonalLoop=1;jettySize=auto;html=1;endArrow=none;endFill=0;exitX=0.5;exitY=0;exitDx=0;exitDy=0;" edge="1" parent="1" source="_fCZWCZqBKab2BdOpWAs-2" target="_fCZWCZqBKab2BdOpWAs-35">
          <mxGeometry relative="1" as="geometry">
            <mxPoint x="140" y="240" as="sourcePoint" />
          </mxGeometry>
        </mxCell>
        <mxCell id="_fCZWCZqBKab2BdOpWAs-45" style="edgeStyle=none;rounded=0;orthogonalLoop=1;jettySize=auto;html=1;exitX=0.75;exitY=0;exitDx=0;exitDy=0;entryX=0.5;entryY=1;entryDx=0;entryDy=0;endArrow=none;endFill=0;" edge="1" parent="1" source="_fCZWCZqBKab2BdOpWAs-2" target="_fCZWCZqBKab2BdOpWAs-6">
          <mxGeometry relative="1" as="geometry" />
        </mxCell>
        <mxCell id="_fCZWCZqBKab2BdOpWAs-2" value="Car Type" style="rounded=0;whiteSpace=wrap;html=1;" vertex="1" parent="1">
          <mxGeometry x="100" y="250" width="80" height="40" as="geometry" />
        </mxCell>
        <mxCell id="_fCZWCZqBKab2BdOpWAs-64" style="edgeStyle=none;rounded=0;orthogonalLoop=1;jettySize=auto;html=1;exitX=0.5;exitY=0;exitDx=0;exitDy=0;entryX=0.5;entryY=1;entryDx=0;entryDy=0;endArrow=none;endFill=0;shape=link;" edge="1" parent="1" source="_fCZWCZqBKab2BdOpWAs-3" target="_fCZWCZqBKab2BdOpWAs-63">
          <mxGeometry relative="1" as="geometry" />
        </mxCell>
        <mxCell id="_fCZWCZqBKab2BdOpWAs-66" style="edgeStyle=none;rounded=0;orthogonalLoop=1;jettySize=auto;html=1;exitX=0.5;exitY=1;exitDx=0;exitDy=0;entryX=0.5;entryY=0;entryDx=0;entryDy=0;endArrow=none;endFill=0;" edge="1" parent="1" source="_fCZWCZqBKab2BdOpWAs-3" target="_fCZWCZqBKab2BdOpWAs-7">
          <mxGeometry relative="1" as="geometry" />
        </mxCell>
        <mxCell id="_fCZWCZqBKab2BdOpWAs-3" value="Car" style="rounded=0;whiteSpace=wrap;html=1;" vertex="1" parent="1">
          <mxGeometry x="160" y="560" width="80" height="40" as="geometry" />
        </mxCell>
        <mxCell id="_fCZWCZqBKab2BdOpWAs-14" style="edgeStyle=none;rounded=0;orthogonalLoop=1;jettySize=auto;html=1;exitX=1;exitY=0.5;exitDx=0;exitDy=0;entryX=0;entryY=0;entryDx=0;entryDy=0;endArrow=none;endFill=0;" edge="1" parent="1" source="_fCZWCZqBKab2BdOpWAs-5" target="_fCZWCZqBKab2BdOpWAs-1">
          <mxGeometry relative="1" as="geometry" />
        </mxCell>
        <mxCell id="_fCZWCZqBKab2BdOpWAs-5" value="ID" style="ellipse;whiteSpace=wrap;html=1;align=center;fontStyle=4;" vertex="1" parent="1">
          <mxGeometry x="490" y="200" width="80" height="40" as="geometry" />
        </mxCell>
        <mxCell id="_fCZWCZqBKab2BdOpWAs-6" value="Name" style="ellipse;whiteSpace=wrap;html=1;align=center;fontStyle=4;" vertex="1" parent="1">
          <mxGeometry x="190" y="150" width="80" height="40" as="geometry" />
        </mxCell>
        <mxCell id="_fCZWCZqBKab2BdOpWAs-7" value="License Number" style="ellipse;whiteSpace=wrap;html=1;align=center;fontStyle=4;" vertex="1" parent="1">
          <mxGeometry x="160" y="640" width="80" height="40" as="geometry" />
        </mxCell>
        <mxCell id="_fCZWCZqBKab2BdOpWAs-13" style="rounded=0;orthogonalLoop=1;jettySize=auto;html=1;exitX=1;exitY=0.5;exitDx=0;exitDy=0;entryX=0;entryY=1;entryDx=0;entryDy=0;endArrow=none;endFill=0;" edge="1" parent="1" source="_fCZWCZqBKab2BdOpWAs-8" target="_fCZWCZqBKab2BdOpWAs-1">
          <mxGeometry relative="1" as="geometry" />
        </mxCell>
        <mxCell id="_fCZWCZqBKab2BdOpWAs-8" value="Name" style="ellipse;whiteSpace=wrap;html=1;align=center;" vertex="1" parent="1">
          <mxGeometry x="490" y="260" width="80" height="40" as="geometry" />
        </mxCell>
        <mxCell id="_fCZWCZqBKab2BdOpWAs-17" style="edgeStyle=none;rounded=0;orthogonalLoop=1;jettySize=auto;html=1;exitX=0.5;exitY=1;exitDx=0;exitDy=0;entryX=0.5;entryY=0;entryDx=0;entryDy=0;endArrow=none;endFill=0;" edge="1" parent="1" source="_fCZWCZqBKab2BdOpWAs-9" target="_fCZWCZqBKab2BdOpWAs-1">
          <mxGeometry relative="1" as="geometry" />
        </mxCell>
        <mxCell id="_fCZWCZqBKab2BdOpWAs-22" style="edgeStyle=none;rounded=0;orthogonalLoop=1;jettySize=auto;html=1;exitX=1;exitY=0.5;exitDx=0;exitDy=0;entryX=0.5;entryY=1;entryDx=0;entryDy=0;endArrow=none;endFill=0;" edge="1" parent="1" source="_fCZWCZqBKab2BdOpWAs-9" target="_fCZWCZqBKab2BdOpWAs-19">
          <mxGeometry relative="1" as="geometry" />
        </mxCell>
        <mxCell id="_fCZWCZqBKab2BdOpWAs-9" value="Address" style="ellipse;whiteSpace=wrap;html=1;align=center;" vertex="1" parent="1">
          <mxGeometry x="610" y="130" width="80" height="40" as="geometry" />
        </mxCell>
        <mxCell id="_fCZWCZqBKab2BdOpWAs-15" style="edgeStyle=none;rounded=0;orthogonalLoop=1;jettySize=auto;html=1;exitX=1;exitY=0.5;exitDx=0;exitDy=0;endArrow=none;endFill=0;" edge="1" parent="1" source="_fCZWCZqBKab2BdOpWAs-10">
          <mxGeometry relative="1" as="geometry">
            <mxPoint x="610" y="200" as="targetPoint" />
          </mxGeometry>
        </mxCell>
        <mxCell id="_fCZWCZqBKab2BdOpWAs-10" value="Day Phone #" style="ellipse;whiteSpace=wrap;html=1;align=center;" vertex="1" parent="1">
          <mxGeometry x="490" y="140" width="80" height="40" as="geometry" />
        </mxCell>
        <mxCell id="_fCZWCZqBKab2BdOpWAs-16" style="edgeStyle=none;rounded=0;orthogonalLoop=1;jettySize=auto;html=1;exitX=0;exitY=0.5;exitDx=0;exitDy=0;entryX=1;entryY=0;entryDx=0;entryDy=0;endArrow=none;endFill=0;" edge="1" parent="1" source="_fCZWCZqBKab2BdOpWAs-11" target="_fCZWCZqBKab2BdOpWAs-1">
          <mxGeometry relative="1" as="geometry" />
        </mxCell>
        <mxCell id="_fCZWCZqBKab2BdOpWAs-32" style="edgeStyle=none;rounded=0;orthogonalLoop=1;jettySize=auto;html=1;exitX=1;exitY=0.5;exitDx=0;exitDy=0;entryX=0;entryY=0.5;entryDx=0;entryDy=0;endArrow=none;endFill=0;" edge="1" parent="1" source="_fCZWCZqBKab2BdOpWAs-11" target="_fCZWCZqBKab2BdOpWAs-30">
          <mxGeometry relative="1" as="geometry" />
        </mxCell>
        <mxCell id="_fCZWCZqBKab2BdOpWAs-11" value="Evening Phone #" style="ellipse;whiteSpace=wrap;html=1;align=center;" vertex="1" parent="1">
          <mxGeometry x="730" y="140" width="80" height="40" as="geometry" />
        </mxCell>
        <mxCell id="_fCZWCZqBKab2BdOpWAs-24" style="edgeStyle=none;rounded=0;orthogonalLoop=1;jettySize=auto;html=1;exitX=0.5;exitY=1;exitDx=0;exitDy=0;entryX=0.5;entryY=0;entryDx=0;entryDy=0;endArrow=none;endFill=0;" edge="1" parent="1" source="_fCZWCZqBKab2BdOpWAs-18" target="_fCZWCZqBKab2BdOpWAs-9">
          <mxGeometry relative="1" as="geometry" />
        </mxCell>
        <mxCell id="_fCZWCZqBKab2BdOpWAs-18" value="Zip code" style="ellipse;whiteSpace=wrap;html=1;align=center;" vertex="1" parent="1">
          <mxGeometry x="570" y="40" width="80" height="40" as="geometry" />
        </mxCell>
        <mxCell id="_fCZWCZqBKab2BdOpWAs-19" value="City" style="ellipse;whiteSpace=wrap;html=1;align=center;" vertex="1" parent="1">
          <mxGeometry x="680" y="90" width="80" height="40" as="geometry" />
        </mxCell>
        <mxCell id="_fCZWCZqBKab2BdOpWAs-25" style="edgeStyle=none;rounded=0;orthogonalLoop=1;jettySize=auto;html=1;exitX=0.5;exitY=1;exitDx=0;exitDy=0;endArrow=none;endFill=0;" edge="1" parent="1" source="_fCZWCZqBKab2BdOpWAs-20">
          <mxGeometry relative="1" as="geometry">
            <mxPoint x="650" y="130" as="targetPoint" />
          </mxGeometry>
        </mxCell>
        <mxCell id="_fCZWCZqBKab2BdOpWAs-20" value="State" style="ellipse;whiteSpace=wrap;html=1;align=center;" vertex="1" parent="1">
          <mxGeometry x="650" y="40" width="80" height="40" as="geometry" />
        </mxCell>
        <mxCell id="_fCZWCZqBKab2BdOpWAs-23" style="edgeStyle=none;rounded=0;orthogonalLoop=1;jettySize=auto;html=1;exitX=0.5;exitY=1;exitDx=0;exitDy=0;entryX=0;entryY=0.5;entryDx=0;entryDy=0;endArrow=none;endFill=0;" edge="1" parent="1" source="_fCZWCZqBKab2BdOpWAs-21" target="_fCZWCZqBKab2BdOpWAs-9">
          <mxGeometry relative="1" as="geometry" />
        </mxCell>
        <mxCell id="_fCZWCZqBKab2BdOpWAs-21" value="Street Address" style="ellipse;whiteSpace=wrap;html=1;align=center;" vertex="1" parent="1">
          <mxGeometry x="540" y="90" width="80" height="40" as="geometry" />
        </mxCell>
        <mxCell id="_fCZWCZqBKab2BdOpWAs-28" style="edgeStyle=none;rounded=0;orthogonalLoop=1;jettySize=auto;html=1;exitX=1;exitY=0.5;exitDx=0;exitDy=0;entryX=0;entryY=0.5;entryDx=0;entryDy=0;endArrow=none;endFill=0;" edge="1" parent="1" source="_fCZWCZqBKab2BdOpWAs-26" target="_fCZWCZqBKab2BdOpWAs-10">
          <mxGeometry relative="1" as="geometry" />
        </mxCell>
        <mxCell id="_fCZWCZqBKab2BdOpWAs-26" value="Area Code" style="ellipse;whiteSpace=wrap;html=1;align=center;" vertex="1" parent="1">
          <mxGeometry x="390" y="100" width="80" height="40" as="geometry" />
        </mxCell>
        <mxCell id="_fCZWCZqBKab2BdOpWAs-29" style="edgeStyle=none;rounded=0;orthogonalLoop=1;jettySize=auto;html=1;exitX=1;exitY=0.5;exitDx=0;exitDy=0;entryX=0;entryY=0.5;entryDx=0;entryDy=0;endArrow=none;endFill=0;" edge="1" parent="1" source="_fCZWCZqBKab2BdOpWAs-27" target="_fCZWCZqBKab2BdOpWAs-10">
          <mxGeometry relative="1" as="geometry" />
        </mxCell>
        <mxCell id="_fCZWCZqBKab2BdOpWAs-27" value="Number" style="ellipse;whiteSpace=wrap;html=1;align=center;" vertex="1" parent="1">
          <mxGeometry x="390" y="180" width="80" height="40" as="geometry" />
        </mxCell>
        <mxCell id="_fCZWCZqBKab2BdOpWAs-30" value="Area Code" style="ellipse;whiteSpace=wrap;html=1;align=center;" vertex="1" parent="1">
          <mxGeometry x="820" y="100" width="80" height="40" as="geometry" />
        </mxCell>
        <mxCell id="_fCZWCZqBKab2BdOpWAs-33" style="edgeStyle=none;rounded=0;orthogonalLoop=1;jettySize=auto;html=1;exitX=0;exitY=0.5;exitDx=0;exitDy=0;entryX=1;entryY=0.5;entryDx=0;entryDy=0;endArrow=none;endFill=0;" edge="1" parent="1" source="_fCZWCZqBKab2BdOpWAs-31" target="_fCZWCZqBKab2BdOpWAs-11">
          <mxGeometry relative="1" as="geometry" />
        </mxCell>
        <mxCell id="_fCZWCZqBKab2BdOpWAs-31" value="Number" style="ellipse;whiteSpace=wrap;html=1;align=center;" vertex="1" parent="1">
          <mxGeometry x="780" y="50" width="80" height="40" as="geometry" />
        </mxCell>
        <mxCell id="_fCZWCZqBKab2BdOpWAs-35" value="Make" style="ellipse;whiteSpace=wrap;html=1;align=center;" vertex="1" parent="1">
          <mxGeometry x="100" y="150" width="80" height="40" as="geometry" />
        </mxCell>
        <mxCell id="_fCZWCZqBKab2BdOpWAs-36" value="Model" style="ellipse;whiteSpace=wrap;html=1;align=center;" vertex="1" parent="1">
          <mxGeometry x="220" y="200" width="80" height="40" as="geometry" />
        </mxCell>
        <mxCell id="_fCZWCZqBKab2BdOpWAs-37" value="Year" style="ellipse;whiteSpace=wrap;html=1;align=center;" vertex="1" parent="1">
          <mxGeometry x="20" y="180" width="80" height="40" as="geometry" />
        </mxCell>
        <mxCell id="_fCZWCZqBKab2BdOpWAs-38" value="Engine Type" style="ellipse;whiteSpace=wrap;html=1;align=center;" vertex="1" parent="1">
          <mxGeometry x="220" y="250" width="80" height="40" as="geometry" />
        </mxCell>
        <mxCell id="_fCZWCZqBKab2BdOpWAs-39" value="Transmission Type" style="ellipse;whiteSpace=wrap;html=1;align=center;" vertex="1" parent="1">
          <mxGeometry x="220" y="300" width="80" height="40" as="geometry" />
        </mxCell>
        <mxCell id="_fCZWCZqBKab2BdOpWAs-67" style="edgeStyle=none;rounded=0;orthogonalLoop=1;jettySize=auto;html=1;exitX=0.5;exitY=0;exitDx=0;exitDy=0;entryX=0;entryY=1;entryDx=0;entryDy=0;endArrow=none;endFill=0;" edge="1" parent="1" source="_fCZWCZqBKab2BdOpWAs-46" target="_fCZWCZqBKab2BdOpWAs-3">
          <mxGeometry relative="1" as="geometry" />
        </mxCell>
        <mxCell id="_fCZWCZqBKab2BdOpWAs-46" value="Color" style="ellipse;whiteSpace=wrap;html=1;align=center;" vertex="1" parent="1">
          <mxGeometry x="40" y="640" width="80" height="40" as="geometry" />
        </mxCell>
        <mxCell id="_fCZWCZqBKab2BdOpWAs-68" style="edgeStyle=none;rounded=0;orthogonalLoop=1;jettySize=auto;html=1;exitX=0.5;exitY=1;exitDx=0;exitDy=0;entryX=0;entryY=0;entryDx=0;entryDy=0;endArrow=none;endFill=0;" edge="1" parent="1" source="_fCZWCZqBKab2BdOpWAs-47" target="_fCZWCZqBKab2BdOpWAs-3">
          <mxGeometry relative="1" as="geometry" />
        </mxCell>
        <mxCell id="_fCZWCZqBKab2BdOpWAs-47" value="Last Maintenance Date" style="ellipse;whiteSpace=wrap;html=1;align=center;" vertex="1" parent="1">
          <mxGeometry x="30" y="500" width="80" height="40" as="geometry" />
        </mxCell>
        <mxCell id="_fCZWCZqBKab2BdOpWAs-48" value="Rental Record" style="shape=ext;margin=3;double=1;whiteSpace=wrap;html=1;align=center;" vertex="1" parent="1">
          <mxGeometry x="640" y="560" width="80" height="40" as="geometry" />
        </mxCell>
        <mxCell id="_fCZWCZqBKab2BdOpWAs-54" style="edgeStyle=none;rounded=0;orthogonalLoop=1;jettySize=auto;html=1;exitX=0.5;exitY=0;exitDx=0;exitDy=0;entryX=1;entryY=1;entryDx=0;entryDy=0;endArrow=none;endFill=0;" edge="1" parent="1" source="_fCZWCZqBKab2BdOpWAs-51" target="_fCZWCZqBKab2BdOpWAs-48">
          <mxGeometry relative="1" as="geometry" />
        </mxCell>
        <mxCell id="_fCZWCZqBKab2BdOpWAs-51" value="Employee" style="ellipse;whiteSpace=wrap;html=1;align=center;" vertex="1" parent="1">
          <mxGeometry x="710" y="640" width="80" height="40" as="geometry" />
        </mxCell>
        <mxCell id="_fCZWCZqBKab2BdOpWAs-53" style="edgeStyle=none;rounded=0;orthogonalLoop=1;jettySize=auto;html=1;exitX=0.5;exitY=0;exitDx=0;exitDy=0;entryX=0;entryY=1;entryDx=0;entryDy=0;endArrow=none;endFill=0;" edge="1" parent="1" source="_fCZWCZqBKab2BdOpWAs-52" target="_fCZWCZqBKab2BdOpWAs-48">
          <mxGeometry relative="1" as="geometry" />
        </mxCell>
        <mxCell id="_fCZWCZqBKab2BdOpWAs-52" value="Total Payment" style="ellipse;whiteSpace=wrap;html=1;align=center;" vertex="1" parent="1">
          <mxGeometry x="580" y="640" width="80" height="40" as="geometry" />
        </mxCell>
        <mxCell id="_fCZWCZqBKab2BdOpWAs-62" style="edgeStyle=none;rounded=0;orthogonalLoop=1;jettySize=auto;html=1;exitX=0;exitY=0.5;exitDx=0;exitDy=0;entryX=1;entryY=0;entryDx=0;entryDy=0;endArrow=none;endFill=0;" edge="1" parent="1" source="_fCZWCZqBKab2BdOpWAs-59" target="_fCZWCZqBKab2BdOpWAs-48">
          <mxGeometry relative="1" as="geometry" />
        </mxCell>
        <mxCell id="_fCZWCZqBKab2BdOpWAs-59" value="&lt;span style=&quot;border-bottom: 1px dotted&quot;&gt;Rental Date&lt;br&gt;&lt;/span&gt;" style="ellipse;whiteSpace=wrap;html=1;align=center;" vertex="1" parent="1">
          <mxGeometry x="760" y="530" width="80" height="40" as="geometry" />
        </mxCell>
        <mxCell id="_fCZWCZqBKab2BdOpWAs-61" style="edgeStyle=none;rounded=0;orthogonalLoop=1;jettySize=auto;html=1;exitX=0;exitY=0.5;exitDx=0;exitDy=0;entryX=1;entryY=0.5;entryDx=0;entryDy=0;endArrow=none;endFill=0;" edge="1" parent="1" source="_fCZWCZqBKab2BdOpWAs-60" target="_fCZWCZqBKab2BdOpWAs-48">
          <mxGeometry relative="1" as="geometry" />
        </mxCell>
        <mxCell id="_fCZWCZqBKab2BdOpWAs-60" value="&lt;span style=&quot;border-bottom: 1px dotted&quot;&gt;Return Date&lt;br&gt;&lt;/span&gt;" style="ellipse;whiteSpace=wrap;html=1;align=center;" vertex="1" parent="1">
          <mxGeometry x="760" y="590" width="80" height="40" as="geometry" />
        </mxCell>
        <mxCell id="_fCZWCZqBKab2BdOpWAs-65" style="edgeStyle=none;rounded=0;orthogonalLoop=1;jettySize=auto;html=1;exitX=0.5;exitY=0;exitDx=0;exitDy=0;entryX=0.5;entryY=1;entryDx=0;entryDy=0;endArrow=none;endFill=0;shape=link;" edge="1" parent="1" source="_fCZWCZqBKab2BdOpWAs-63" target="_fCZWCZqBKab2BdOpWAs-2">
          <mxGeometry relative="1" as="geometry" />
        </mxCell>
        <mxCell id="_fCZWCZqBKab2BdOpWAs-63" value="Has" style="shape=rhombus;perimeter=rhombusPerimeter;whiteSpace=wrap;html=1;align=center;" vertex="1" parent="1">
          <mxGeometry x="130" y="450" width="80" height="40" as="geometry" />
        </mxCell>
        <mxCell id="_fCZWCZqBKab2BdOpWAs-75" style="edgeStyle=none;rounded=0;orthogonalLoop=1;jettySize=auto;html=1;exitX=0.5;exitY=0;exitDx=0;exitDy=0;entryX=0.5;entryY=1;entryDx=0;entryDy=0;endArrow=none;endFill=0;" edge="1" parent="1" source="_fCZWCZqBKab2BdOpWAs-69" target="_fCZWCZqBKab2BdOpWAs-1">
          <mxGeometry relative="1" as="geometry" />
        </mxCell>
        <mxCell id="_fCZWCZqBKab2BdOpWAs-76" style="edgeStyle=none;rounded=0;orthogonalLoop=1;jettySize=auto;html=1;exitX=0.5;exitY=1;exitDx=0;exitDy=0;entryX=0.5;entryY=0;entryDx=0;entryDy=0;endArrow=none;endFill=0;" edge="1" parent="1" source="_fCZWCZqBKab2BdOpWAs-69" target="_fCZWCZqBKab2BdOpWAs-48">
          <mxGeometry relative="1" as="geometry" />
        </mxCell>
        <mxCell id="_fCZWCZqBKab2BdOpWAs-69" value="Includes" style="shape=rhombus;double=1;perimeter=rhombusPerimeter;whiteSpace=wrap;html=1;align=center;" vertex="1" parent="1">
          <mxGeometry x="640" y="470" width="80" height="40" as="geometry" />
        </mxCell>
        <mxCell id="_fCZWCZqBKab2BdOpWAs-73" style="edgeStyle=none;rounded=0;orthogonalLoop=1;jettySize=auto;html=1;exitX=1;exitY=0.5;exitDx=0;exitDy=0;entryX=0;entryY=0.5;entryDx=0;entryDy=0;endArrow=none;endFill=0;" edge="1" parent="1" source="_fCZWCZqBKab2BdOpWAs-72" target="_fCZWCZqBKab2BdOpWAs-48">
          <mxGeometry relative="1" as="geometry" />
        </mxCell>
        <mxCell id="_fCZWCZqBKab2BdOpWAs-74" style="edgeStyle=none;rounded=0;orthogonalLoop=1;jettySize=auto;html=1;exitX=0;exitY=0.5;exitDx=0;exitDy=0;entryX=1;entryY=0.5;entryDx=0;entryDy=0;endArrow=none;endFill=0;" edge="1" parent="1" source="_fCZWCZqBKab2BdOpWAs-72" target="_fCZWCZqBKab2BdOpWAs-3">
          <mxGeometry relative="1" as="geometry" />
        </mxCell>
        <mxCell id="_fCZWCZqBKab2BdOpWAs-72" value="Includes" style="shape=rhombus;double=1;perimeter=rhombusPerimeter;whiteSpace=wrap;html=1;align=center;" vertex="1" parent="1">
          <mxGeometry x="385" y="560" width="80" height="40" as="geometry" />
        </mxCell>
        <mxCell id="_fCZWCZqBKab2BdOpWAs-77" value="M" style="text;html=1;strokeColor=none;fillColor=none;align=center;verticalAlign=middle;whiteSpace=wrap;rounded=0;" vertex="1" parent="1">
          <mxGeometry x="200" y="540" width="40" height="20" as="geometry" />
        </mxCell>
        <mxCell id="_fCZWCZqBKab2BdOpWAs-78" value="N" style="text;html=1;strokeColor=none;fillColor=none;align=center;verticalAlign=middle;whiteSpace=wrap;rounded=0;" vertex="1" parent="1">
          <mxGeometry x="100" y="290" width="40" height="20" as="geometry" />
        </mxCell>
        <mxCell id="_fCZWCZqBKab2BdOpWAs-79" value="M" style="text;html=1;strokeColor=none;fillColor=none;align=center;verticalAlign=middle;whiteSpace=wrap;rounded=0;" vertex="1" parent="1">
          <mxGeometry x="600" y="560" width="40" height="20" as="geometry" />
        </mxCell>
        <mxCell id="_fCZWCZqBKab2BdOpWAs-80" value="1" style="text;html=1;strokeColor=none;fillColor=none;align=center;verticalAlign=middle;whiteSpace=wrap;rounded=0;" vertex="1" parent="1">
          <mxGeometry x="240" y="580" width="40" height="20" as="geometry" />
        </mxCell>
        <mxCell id="_fCZWCZqBKab2BdOpWAs-81" value="M" style="text;html=1;strokeColor=none;fillColor=none;align=center;verticalAlign=middle;whiteSpace=wrap;rounded=0;" vertex="1" parent="1">
          <mxGeometry x="680" y="540" width="40" height="20" as="geometry" />
        </mxCell>
        <mxCell id="_fCZWCZqBKab2BdOpWAs-82" value="1" style="text;html=1;strokeColor=none;fillColor=none;align=center;verticalAlign=middle;whiteSpace=wrap;rounded=0;" vertex="1" parent="1">
          <mxGeometry x="650" y="240" width="40" height="20" as="geometry" />
        </mxCell>
      </root>
    </mxGraphModel>
  </diagram>
</mxfile>
